<svg width="408" height="300" viewBox="0 0 408 300" fill="none" xmlns="http://www.w3.org/2000/svg">
<path d="M204 292.5C282.701 292.5 346.5 228.701 346.5 150C346.5 71.2994 282.701 7.5 204 7.5C125.299 7.5 61.5 71.2994 61.5 150C61.5 228.701 125.299 292.5 204 292.5Z" fill="#1E40AF"/>
<path d="M101.633 206.885C104.532 206.885 106.883 204.535 106.883 201.635C106.883 198.736 104.532 196.385 101.633 196.385C98.7331 196.385 96.3826 198.736 96.3826 201.635C96.3826 204.535 98.7331 206.885 101.633 206.885Z" fill="#FF0000" stroke="white" stroke-width="0.75"/>
<path d="M109.398 184.692C112.298 184.692 114.648 182.342 114.648 179.442C114.648 176.543 112.298 174.192 109.398 174.192C106.499 174.192 104.148 176.543 104.148 179.442C104.148 182.342 106.499 184.692 109.398 184.692Z" fill="#FF0000" stroke="white" stroke-width="0.75"/>
<path d="M121.908 164.784C124.807 164.784 127.158 162.433 127.158 159.534C127.158 156.634 124.807 154.284 121.908 154.284C119.008 154.284 116.658 156.634 116.658 159.534C116.658 162.433 119.008 164.784 121.908 164.784Z" fill="#FF0000" stroke="white" stroke-width="0.75"/>
<path d="M138.534 148.158C141.433 148.158 143.784 145.807 143.784 142.908C143.784 140.008 141.433 137.658 138.534 137.658C135.634 137.658 133.284 140.008 133.284 142.908C133.284 145.807 135.634 148.158 138.534 148.158Z" fill="#FF0000" stroke="white" stroke-width="0.75"/>
<path d="M158.442 135.648C161.342 135.648 163.692 133.298 163.692 130.398C163.692 127.499 161.342 125.148 158.442 125.148C155.543 125.148 153.192 127.499 153.192 130.398C153.192 133.298 155.543 135.648 158.442 135.648Z" fill="#FF0000" stroke="white" stroke-width="0.75"/>
<path d="M180.635 127.883C183.535 127.883 185.885 125.532 185.885 122.633C185.885 119.733 183.535 117.383 180.635 117.383C177.736 117.383 175.385 119.733 175.385 122.633C175.385 125.532 177.736 127.883 180.635 127.883Z" fill="#FF0000" stroke="white" stroke-width="0.75"/>
<path d="M204 125.25C206.899 125.25 209.25 122.899 209.25 120C209.25 117.101 206.899 114.75 204 114.75C201.101 114.75 198.75 117.101 198.75 120C198.75 122.899 201.101 125.25 204 125.25Z" fill="#00470E" stroke="white" stroke-width="0.75"/>
<path d="M227.365 127.883C230.264 127.883 232.615 125.532 232.615 122.633C232.615 119.733 230.264 117.383 227.365 117.383C224.465 117.383 222.115 119.733 222.115 122.633C222.115 125.532 224.465 127.883 227.365 127.883Z" fill="#00470E" stroke="white" stroke-width="0.75"/>
<path d="M249.558 135.648C252.457 135.648 254.808 133.298 254.808 130.398C254.808 127.499 252.457 125.148 249.558 125.148C246.658 125.148 244.308 127.499 244.308 130.398C244.308 133.298 246.658 135.648 249.558 135.648Z" fill="#00470E" stroke="white" stroke-width="0.75"/>
<path d="M269.466 148.158C272.366 148.158 274.716 145.807 274.716 142.908C274.716 140.008 272.366 137.658 269.466 137.658C266.567 137.658 264.216 140.008 264.216 142.908C264.216 145.807 266.567 148.158 269.466 148.158Z" fill="#00470E" stroke="white" stroke-width="0.75"/>
<path d="M286.092 164.784C288.992 164.784 291.342 162.433 291.342 159.534C291.342 156.634 288.992 154.284 286.092 154.284C283.193 154.284 280.842 156.634 280.842 159.534C280.842 162.433 283.193 164.784 286.092 164.784Z" fill="#00470E" stroke="white" stroke-width="0.75"/>
<path d="M298.602 184.692C301.501 184.692 303.852 182.342 303.852 179.442C303.852 176.543 301.501 174.192 298.602 174.192C295.702 174.192 293.352 176.543 293.352 179.442C293.352 182.342 295.702 184.692 298.602 184.692Z" fill="#00B7FF" stroke="white" stroke-width="0.75"/>
<path d="M306.367 206.885C309.267 206.885 311.617 204.535 311.617 201.635C311.617 198.736 309.267 196.385 306.367 196.385C303.468 196.385 301.117 198.736 301.117 201.635C301.117 204.535 303.468 206.885 306.367 206.885Z" fill="#00B7FF" stroke="white" stroke-width="0.75"/>
<path d="M124.311 208.897C127.211 208.897 129.561 206.547 129.561 203.647C129.561 200.748 127.211 198.397 124.311 198.397C121.412 198.397 119.061 200.748 119.061 203.647C119.061 206.547 121.412 208.897 124.311 208.897Z" fill="#00B7FF" stroke="white" stroke-width="0.75"/>
<path d="M132.553 189C135.452 189 137.803 186.649 137.803 183.75C137.803 180.851 135.452 178.5 132.553 178.5C129.653 178.5 127.303 180.851 127.303 183.75C127.303 186.649 129.653 189 132.553 189Z" fill="#00B7FF" stroke="white" stroke-width="0.75"/>
<path d="M145.664 171.914C148.563 171.914 150.914 169.563 150.914 166.664C150.914 163.764 148.563 161.414 145.664 161.414C142.764 161.414 140.414 163.764 140.414 166.664C140.414 169.563 142.764 171.914 145.664 171.914Z" fill="#00B7FF" stroke="white" stroke-width="0.75"/>
<path d="M162.75 158.803C165.649 158.803 168 156.452 168 153.553C168 150.653 165.649 148.303 162.75 148.303C159.851 148.303 157.5 150.653 157.5 153.553C157.5 156.452 159.851 158.803 162.75 158.803Z" fill="#00B7FF" stroke="white" stroke-width="0.75"/>
<path d="M182.647 150.561C185.547 150.561 187.897 148.211 187.897 145.311C187.897 142.412 185.547 140.061 182.647 140.061C179.748 140.061 177.397 142.412 177.397 145.311C177.397 148.211 179.748 150.561 182.647 150.561Z" fill="#FF4000" stroke="white" stroke-width="0.75"/>
<path d="M204 147.75C206.899 147.75 209.25 145.399 209.25 142.5C209.25 139.601 206.899 137.25 204 137.25C201.101 137.25 198.75 139.601 198.75 142.5C198.75 145.399 201.101 147.75 204 147.75Z" fill="#FF4000" stroke="white" stroke-width="0.75"/>
<path d="M225.353 150.561C228.252 150.561 230.603 148.211 230.603 145.311C230.603 142.412 228.252 140.061 225.353 140.061C222.453 140.061 220.103 142.412 220.103 145.311C220.103 148.211 222.453 150.561 225.353 150.561Z" fill="#FF4000" stroke="white" stroke-width="0.75"/>
<path d="M245.25 158.803C248.149 158.803 250.5 156.452 250.5 153.553C250.5 150.653 248.149 148.303 245.25 148.303C242.351 148.303 240 150.653 240 153.553C240 156.452 242.351 158.803 245.25 158.803Z" fill="#FF4000" stroke="white" stroke-width="0.75"/>
<path d="M262.336 171.914C265.236 171.914 267.586 169.563 267.586 166.664C267.586 163.764 265.236 161.414 262.336 161.414C259.437 161.414 257.086 163.764 257.086 166.664C257.086 169.563 259.437 171.914 262.336 171.914Z" fill="#FF4000" stroke="white" stroke-width="0.75"/>
<path d="M275.447 189C278.347 189 280.697 186.649 280.697 183.75C280.697 180.851 278.347 178.5 275.447 178.5C272.548 178.5 270.197 180.851 270.197 183.75C270.197 186.649 272.548 189 275.447 189Z" fill="#FF0062" stroke="white" stroke-width="0.75"/>
<path d="M283.689 208.897C286.588 208.897 288.939 206.547 288.939 203.647C288.939 200.748 286.588 198.397 283.689 198.397C280.789 198.397 278.439 200.748 278.439 203.647C278.439 206.547 280.789 208.897 283.689 208.897Z" fill="#FF0062" stroke="white" stroke-width="0.75"/>
<path d="M146.937 211.709C149.836 211.709 152.187 209.358 152.187 206.459C152.187 203.559 149.836 201.209 146.937 201.209C144.037 201.209 141.687 203.559 141.687 206.459C141.687 209.358 144.037 211.709 146.937 211.709Z" fill="#FF0062" stroke="white" stroke-width="0.75"/>
<path d="M155.459 194.983C158.358 194.983 160.709 192.632 160.709 189.733C160.709 186.833 158.358 184.483 155.459 184.483C152.559 184.483 150.209 186.833 150.209 189.733C150.209 192.632 152.559 194.983 155.459 194.983Z" fill="#FF0062" stroke="white" stroke-width="0.75"/>
<path d="M168.733 181.709C171.632 181.709 173.983 179.358 173.983 176.459C173.983 173.559 171.632 171.209 168.733 171.209C165.833 171.209 163.483 173.559 163.483 176.459C163.483 179.358 165.833 181.709 168.733 181.709Z" fill="#FF0062" stroke="white" stroke-width="0.75"/>
<path d="M185.459 173.187C188.358 173.187 190.709 170.836 190.709 167.937C190.709 165.037 188.358 162.687 185.459 162.687C182.559 162.687 180.209 165.037 180.209 167.937C180.209 170.836 182.559 173.187 185.459 173.187Z" fill="#FF0062" stroke="white" stroke-width="0.75"/>
<path d="M204 170.25C206.899 170.25 209.25 167.899 209.25 165C209.25 162.101 206.899 159.75 204 159.75C201.101 159.75 198.75 162.101 198.75 165C198.75 167.899 201.101 170.25 204 170.25Z" fill="#FFD900" stroke="white" stroke-width="0.75"/>
<path d="M222.541 173.187C225.441 173.187 227.791 170.836 227.791 167.937C227.791 165.037 225.441 162.687 222.541 162.687C219.642 162.687 217.291 165.037 217.291 167.937C217.291 170.836 219.642 173.187 222.541 173.187Z" fill="#FFD900" stroke="white" stroke-width="0.75"/>
<path d="M239.267 181.709C242.167 181.709 244.517 179.358 244.517 176.459C244.517 173.559 242.167 171.209 239.267 171.209C236.368 171.209 234.017 173.559 234.017 176.459C234.017 179.358 236.368 181.709 239.267 181.709Z" fill="#FFD900" stroke="white" stroke-width="0.75"/>
<path d="M252.541 194.983C255.441 194.983 257.791 192.632 257.791 189.733C257.791 186.833 255.441 184.483 252.541 184.483C249.642 184.483 247.291 186.833 247.291 189.733C247.291 192.632 249.642 194.983 252.541 194.983Z" fill="#FFD900" stroke="white" stroke-width="0.75"/>
<path d="M261.063 211.709C263.963 211.709 266.313 209.358 266.313 206.459C266.313 203.559 263.963 201.209 261.063 201.209C258.164 201.209 255.813 203.559 255.813 206.459C255.813 209.358 258.164 211.709 261.063 211.709Z" fill="#FFD900" stroke="white" stroke-width="0.75"/>
<path d="M223.5 217.5H184.5C182.843 217.5 181.5 218.843 181.5 220.5V226.5C181.5 228.157 182.843 229.5 184.5 229.5H223.5C225.157 229.5 226.5 228.157 226.5 226.5V220.5C226.5 218.843 225.157 217.5 223.5 217.5Z" fill="white"/>
<path d="M114 232.5H294" stroke="white" stroke-width="3"/>
</svg>
